# xmcd
#
# Track frame offsets:
#	150
#	19004
#	38444
#	54101
#	67697
#	86996
#	102214
#	118032
#	131796
#	151192
#	166777
#	181981
#	200768
#	216046
#	229773
#
# Disc length: 3285 seconds
#
# Revision: 0
# Processed by: cddbd v1.5.1PL0 Copyright (c) Steve Scherf et al.
# Submitted via: audiograbber 1.83.01
#
DISCID=bb0cd30f
DTITLE=V - CB60019
DYEAR=1900
DGENRE=Karaoke Country
TTITLE0=Shania Twain - Any Man Of Mine
TTITLE1=Tanya Tucker - Two Sparrows IN A Hurricane
TTITLE2=Reba McEntire - Take It Back
TTITLE3=Toby Keith - Little Less Talk and A Lot More Action, A
TTITLE4=Tim McGraw - Don't Take The Girl
TTITLE5=Carlene Carter - every Little Thing
TTITLE6=George Strait - You Can't Make A Heart Love Somebody
TTITLE7=John Michael Montgomery - Be My Baby Tonight
TTITLE8=Judds, The - Grandpa
TTITLE9=Mary Chapin Carpenter - Down At The Twist and Shout
TTITLE10=Lee Greenwood - God Bless The USA
TTITLE11=Vince Gill - I Still Believe In You
TTITLE12=Terri Clark - Better Things To Do
TTITLE13=Clint Black - Better Man, A
TTITLE14=Brooks and Dunn - Rock My World Little Country Girl
EXTD=Chartbuster
EXTT0=
EXTT1=
EXTT2=
EXTT3=
EXTT4=
EXTT5=
EXTT6=
EXTT7=
EXTT8=
EXTT9=
EXTT10=
EXTT11=
EXTT12=
EXTT13=
EXTT14=
PLAYORDER=
